<svg width="22" height="24" viewBox="0 0 22 24" fill="none" xmlns="http://www.w3.org/2000/svg">
<g clip-path="url(#clip0_1111_3)">
<path d="M14.8511 8.73413C14.8511 9.33987 14.6106 9.92079 14.1824 10.3491C13.7543 10.7774 13.1736 11.0181 12.5681 11.0181C11.9626 11.0181 11.3819 10.7774 10.9537 10.3491C10.5256 9.92079 10.285 9.33987 10.285 8.73413C10.285 8.12839 10.5256 7.54746 10.9537 7.11914C11.3819 6.69082 11.9626 6.4502 12.5681 6.4502C13.1736 6.4502 13.7543 6.69082 14.1824 7.11914C14.6106 7.54746 14.8511 8.12839 14.8511 8.73413Z" fill="#FFC131"/>
<path d="M8.72843 12.9907C7.46754 12.9907 6.44539 14.0133 6.44539 15.2747C6.44539 16.536 7.46754 17.5586 8.72843 17.5586C9.98932 17.5586 11.0115 16.536 11.0115 15.2747C11.0115 14.0133 9.98932 12.9907 8.72843 12.9907Z" fill="#24C8DB"/>
<path fill-rule="evenodd" clip-rule="evenodd" d="M17.3002 16.0532C16.3827 16.6466 15.3618 17.0621 14.2907 17.2782C14.6011 16.3929 14.7041 15.4481 14.5917 14.5167C15.4998 14.1991 16.3203 13.672 16.9867 12.9779C17.6531 12.2839 18.1467 11.4426 18.4274 10.5221C18.7081 9.60162 18.7681 8.62792 18.6024 7.67994C18.4368 6.73196 18.0502 5.83637 17.4739 5.06577C16.8977 4.29516 16.1481 3.67123 15.2858 3.24456C14.4235 2.81788 13.4729 2.60046 12.511 2.60992C11.549 2.61939 10.6029 2.85547 9.74917 3.29903C8.89546 3.7426 8.15825 4.38116 7.59728 5.16295C6.43565 5.2937 5.30524 5.62383 4.25574 6.13881C4.67063 4.79968 5.40214 3.58036 6.38828 2.5842C7.37441 1.58805 8.58609 0.844433 9.92061 0.416389C11.2551 -0.0116551 12.6731 -0.111507 14.0544 0.125296C15.4357 0.3621 16.7396 0.928579 17.8555 1.77671C18.9714 2.62485 19.8664 3.72963 20.4647 4.99742C21.0631 6.2652 21.347 7.65861 21.2925 9.05953C21.238 10.4605 20.8467 11.8276 20.1517 13.045C19.4568 14.2625 18.4786 15.2943 17.3002 16.0532ZM4.35951 7.72719L6.49727 7.98673C6.54576 7.57373 6.63616 7.16675 6.76708 6.77209C5.9215 6.96874 5.11002 7.29066 4.35951 7.72719Z" fill="#FFC131"/>
<path fill-rule="evenodd" clip-rule="evenodd" d="M3.98594 7.95562C4.909 7.35615 5.93718 6.93697 7.01615 6.72021C6.68978 7.60537 6.57257 8.55407 6.6737 9.49208C5.76874 9.81415 4.95222 10.3447 4.29014 11.0408C3.62806 11.737 3.13898 12.5792 2.86244 13.4994C2.5859 14.4196 2.52966 15.392 2.69825 16.338C2.86685 17.284 3.25556 18.177 3.83296 18.9449C4.41036 19.7128 5.16026 20.334 6.02204 20.7583C6.88383 21.1827 7.83332 21.3982 8.79378 21.3876C9.75424 21.3769 10.6987 21.1404 11.5509 20.697C12.4031 20.2537 13.139 19.616 13.6992 18.8355C14.8602 18.708 15.9906 18.3814 17.0408 17.87C16.6249 19.2077 15.8929 20.4255 14.9068 21.4203C13.9207 22.4151 12.7096 23.1575 11.3759 23.5848C10.0423 24.0122 8.6253 24.1117 7.24501 23.8752C5.86471 23.6386 4.56171 23.0728 3.4463 22.2257C2.33088 21.3786 1.43589 20.2752 0.83709 19.0087C0.238285 17.7423 -0.046709 16.3502 0.00623194 14.9503C0.0591729 13.5503 0.44849 12.1837 1.14123 10.9662C1.83397 9.74863 2.80974 8.71598 3.98594 7.95562Z" fill="#24C8DB"/>
</g>
<defs>
<clipPath id="clip0_1111_3">
<rect width="21.2987" height="24" fill="white"/>
</clipPath>
</defs>
</svg>
